<svg xmlns="http://www.w3.org/2000/svg" width="675.226" height="167.966" viewBox="0 0 675.226 167.966">
  <g id="Layer_1" data-name="Layer 1" transform="translate(-1460.52 -456.017)">
    <g id="Group_33" data-name="Group 33">
      <g id="Group_31" data-name="Group 31">
        <path id="Path_75" data-name="Path 75" d="M1705.528,587.534a2.86,2.86,0,0,1-.952-2.2l.293-1.318,35.3-94.466q1.023-3.658,5.126-3.662h15.964a5.038,5.038,0,0,1,5.126,3.662l35.3,94.466a4.5,4.5,0,0,1,.146,1.318,2.979,2.979,0,0,1-.879,2.2,2.809,2.809,0,0,1-2.05.879h-12.742a4.368,4.368,0,0,1-2.929-.879,3.963,3.963,0,0,1-1.318-1.9l-6.884-17.868h-43.5l-6.883,17.868a4.247,4.247,0,0,1-4.248,2.783h-12.741A3.053,3.053,0,0,1,1705.528,587.534Zm64.368-36.615-16.7-45.256-16.55,45.256Z" fill="#0f172a"/>
        <path id="Path_76" data-name="Path 76" d="M1814.858,615.288a3.33,3.33,0,0,1-1.026-2.563V515.769a3.33,3.33,0,0,1,1.026-2.563,3.524,3.524,0,0,1,2.489-.952h11.571a3.28,3.28,0,0,1,3.514,3.515v5.859q8.2-10.837,23.434-10.839,14.79,0,22.7,9.3t8.494,25.117q.144,1.758.147,5.126,0,3.516-.147,5.273-.586,15.378-8.494,24.825t-22.7,9.446q-14.794,0-22.555-10.4v33.246a3.281,3.281,0,0,1-3.515,3.515h-12.449A3.524,3.524,0,0,1,1814.858,615.288Zm52.431-60.561q.146-1.462.147-4.394t-.147-4.393q-1.026-19.477-16.842-19.479-8.5,0-12.6,5.419a23.714,23.714,0,0,0-4.54,13.327l-.146,5.566.146,5.712a20.272,20.272,0,0,0,4.614,12.522q4.317,5.2,12.522,5.2Q1866.264,574.206,1867.289,554.727Z" fill="#0f172a"/>
        <path id="Path_77" data-name="Path 77" d="M1924.556,587.461a6.709,6.709,0,0,1-1.9-2.71l-27.388-67.957-.293-1.318a3.251,3.251,0,0,1,3.222-3.222h11.863a3.8,3.8,0,0,1,3.809,2.783l19.478,51.407,19.479-51.407a5.6,5.6,0,0,1,1.392-1.9,3.418,3.418,0,0,1,2.416-.879h12.009a2.946,2.946,0,0,1,2.124.952,3.1,3.1,0,0,1,.952,2.27,4.5,4.5,0,0,1-.146,1.318l-27.535,67.957a6.756,6.756,0,0,1-1.9,2.71,5.221,5.221,0,0,1-3.369.952h-10.838A5.214,5.214,0,0,1,1924.556,587.461Z" fill="#0f172a"/>
        <path id="Path_78" data-name="Path 78" d="M1989.216,580.431q-9.594-9.447-10.179-26.583l-.146-3.661.146-3.661q.732-16.7,10.326-26.217t25.7-9.52q17.28,0,26.728,10.546t9.447,28.12v3.076a3.391,3.391,0,0,1-1.025,2.489,3.569,3.569,0,0,1-2.637,1.025h-48.624v1.172a23.182,23.182,0,0,0,4.468,13.547,13.638,13.638,0,0,0,11.5,5.493,16.806,16.806,0,0,0,13.914-6.737,8.688,8.688,0,0,1,2.123-2.051,5.194,5.194,0,0,1,2.417-.439h12.6a3.415,3.415,0,0,1,2.27.8,2.5,2.5,0,0,1,.951,1.978q0,3.515-4.174,8.275a34.567,34.567,0,0,1-11.936,8.275,43.3,43.3,0,0,1-18.014,3.514Q1998.809,589.877,1989.216,580.431Zm42.107-36.688V543.3q0-8.64-4.321-13.914t-11.936-5.273q-7.617,0-11.863,5.273t-4.248,13.914v.439Z" fill="#0f172a"/>
        <path id="Path_79" data-name="Path 79" d="M2073.721,580.431q-9.594-9.447-10.178-26.583l-.147-3.661.147-3.661q.731-16.7,10.325-26.217t25.7-9.52q17.28,0,26.729,10.546t9.446,28.12v3.076a3.39,3.39,0,0,1-1.025,2.489,3.568,3.568,0,0,1-2.636,1.025h-48.624v1.172a23.181,23.181,0,0,0,4.467,13.547,13.639,13.639,0,0,0,11.5,5.493,16.8,16.8,0,0,0,13.913-6.737,8.677,8.677,0,0,1,2.124-2.051,5.188,5.188,0,0,1,2.416-.439h12.6a3.413,3.413,0,0,1,2.27.8,2.5,2.5,0,0,1,.952,1.978q0,3.515-4.174,8.275a34.572,34.572,0,0,1-11.937,8.275,43.3,43.3,0,0,1-18.014,3.514Q2083.314,589.877,2073.721,580.431Zm42.107-36.688V543.3q0-8.64-4.32-13.914t-11.937-5.273q-7.617,0-11.863,5.273t-4.247,13.914v.439Z" fill="#0f172a"/>
      </g>
      <g id="Group_32" data-name="Group 32">
        <path id="Path_80" data-name="Path 80" d="M1629.542,568.153V469.245a13.222,13.222,0,0,0-13.217-13.228H1473.74a13.222,13.222,0,0,0-13.22,13.228v141.5a13.223,13.223,0,0,0,13.22,13.228h94.4a4.971,4.971,0,0,0,4.97-4.974q0-23.023.019-46.047a4.955,4.955,0,0,0-4.944-4.97c-15.413,0-30.841,0-46.447,0a4.876,4.876,0,0,1-4.876-4.869V517.069a4.839,4.839,0,0,1,4.835-4.842h46.537a4.845,4.845,0,0,1,4.835,4.849c-.008,10.416-.038,20.621.022,30.83.027,5.151.166,10.3.3,15.451a4.837,4.837,0,0,0,4.838,4.728l51.439-.056Z" fill="#3b82f6"/>
        <path id="Path_81" data-name="Path 81" d="M1629.663,568.026v51.115a4.841,4.841,0,0,0,4.835,4.842h37.755a13.224,13.224,0,0,0,13.216-13.228V573a4.839,4.839,0,0,0-4.838-4.839h-51.092l.124-.132" fill="#14b8a6"/>
      </g>
    </g>
  </g>
</svg>