<svg xmlns="http://www.w3.org/2000/svg" width="739.391" height="164.862" viewBox="0 0 739.391 164.862">
  <g id="Group_1" data-name="Group 1" transform="translate(-1428.096 -2846.979)">
    <g id="Group_44" data-name="Group 44">
      <path id="Path_105" data-name="Path 105" d="M1678.141,2864.078l-36.325,110.034a4.073,4.073,0,0,0,3.868,5.351h17.941a4.075,4.075,0,0,0,3.88-2.833l7.559-23.637a4.073,4.073,0,0,1,3.88-2.833h43.413a4.075,4.075,0,0,1,3.871,2.805l7.769,23.693a4.076,4.076,0,0,0,3.871,2.8h18.869a4.074,4.074,0,0,0,3.854-5.394l-37.682-110.034a4.074,4.074,0,0,0-3.854-2.754H1682.01A4.075,4.075,0,0,0,1678.141,2864.078Zm6.57,58.75,11.787-36.858a4.074,4.074,0,0,1,3.88-2.833h0a4.075,4.075,0,0,1,3.872,2.8l12.086,36.858a4.074,4.074,0,0,1-3.871,5.344h-23.874A4.074,4.074,0,0,1,1684.711,2922.828Z" fill="#162637"/>
      <path id="Path_106" data-name="Path 106" d="M1861.11,2901.026a38.322,38.322,0,0,0-12.951-9.471,40.264,40.264,0,0,0-16.756-3.4,37.49,37.49,0,0,0-18.617,4.614,33.01,33.01,0,0,0-13.113,13.761l-.033.061a1.443,1.443,0,0,1-2.719-.676V2892.2a1.454,1.454,0,0,0-1.453-1.453h-17.817a1.454,1.454,0,0,0-1.453,1.453v118.19a1.454,1.454,0,0,0,1.453,1.453h23.159a1.453,1.453,0,0,0,1.453-1.453v-37.82a1.447,1.447,0,0,1,2.535-.953,29.645,29.645,0,0,0,8.554,6.634,38.835,38.835,0,0,0,18.051,4.128,41.481,41.481,0,0,0,17.242-3.4,35.789,35.789,0,0,0,12.789-9.632,43.462,43.462,0,0,0,8.014-14.571,56.738,56.738,0,0,0,2.752-17.888v-3.724a54.359,54.359,0,0,0-2.833-17.89A41.575,41.575,0,0,0,1861.11,2901.026Zm-17.727,47.353a21.562,21.562,0,0,1-7.689,9.066,20.627,20.627,0,0,1-11.576,3.239,23.6,23.6,0,0,1-10.684-2.591,21.868,21.868,0,0,1-8.5-7.527,20.828,20.828,0,0,1-3.319-11.9v-5.99a23.183,23.183,0,0,1,3.157-12.3,20.8,20.8,0,0,1,8.338-7.853,23.682,23.682,0,0,1,11.008-2.671,21.025,21.025,0,0,1,11.576,3.157,21.312,21.312,0,0,1,7.689,8.742,29.555,29.555,0,0,1,2.752,13.2A31.13,31.13,0,0,1,1843.383,2948.379Z" fill="#162637"/>
      <path id="Path_107" data-name="Path 107" d="M1926.126,2957.932h0a2.452,2.452,0,0,1-2.361-1.789l-17.875-63.609a2.452,2.452,0,0,0-2.361-1.789h-21.56a2.452,2.452,0,0,0-2.349,3.156l25.082,83.813a2.453,2.453,0,0,0,2.349,1.749h37.4a2.452,2.452,0,0,0,2.374-1.837l21.718-83.813a2.453,2.453,0,0,0-2.374-3.068h-19.993a2.454,2.454,0,0,0-2.385,1.878l-15.278,63.431A2.453,2.453,0,0,1,1926.126,2957.932Z" fill="#162637"/>
      <path id="Path_108" data-name="Path 108" d="M2046.314,2894.065q-9.8-6.393-24.041-6.4a46.9,46.9,0,0,0-19.346,3.8,41.345,41.345,0,0,0-14.247,10.28,45.414,45.414,0,0,0-8.742,14.651,49.246,49.246,0,0,0-2.994,17.08v3.238a48.3,48.3,0,0,0,2.994,16.756,46.524,46.524,0,0,0,8.823,14.813,41.663,41.663,0,0,0,14.489,10.523,48.408,48.408,0,0,0,19.994,3.886,46.6,46.6,0,0,0,19.75-3.967,39.318,39.318,0,0,0,14.246-10.928,37.17,37.17,0,0,0,5.615-9.426,4.675,4.675,0,0,0-4.33-6.439h-14.679a4.641,4.641,0,0,0-3.89,2.1,15.475,15.475,0,0,1-5.056,4.694q-4.533,2.755-11.656,2.752-7.772,0-12.628-3.237a18.683,18.683,0,0,1-7.123-9.147q-.183-.477-.351-.968a4.687,4.687,0,0,1,4.406-6.236H2061.8a4.669,4.669,0,0,0,4.669-4.67v-4.072a49.129,49.129,0,0,0-5.18-22.423A42.445,42.445,0,0,0,2046.314,2894.065Zm-42.658,26.712a18.533,18.533,0,0,1,7.122-8.905,20.958,20.958,0,0,1,11.495-2.994,19.447,19.447,0,0,1,11.089,2.994,17.855,17.855,0,0,1,6.638,8.581c.059.151.117.3.173.458a4.673,4.673,0,0,1-4.4,6.261h-27.889a4.6,4.6,0,0,1-4.254-6.338Z" fill="#162637"/>
      <path id="Path_109" data-name="Path 109" d="M2167.487,2933.162a49.138,49.138,0,0,0-5.18-22.423,42.452,42.452,0,0,0-14.975-16.674q-9.8-6.393-24.041-6.4a46.9,46.9,0,0,0-19.346,3.8,41.356,41.356,0,0,0-14.247,10.28,45.426,45.426,0,0,0-8.741,14.651,49.224,49.224,0,0,0-3,17.08v3.238a48.282,48.282,0,0,0,3,16.756,46.519,46.519,0,0,0,8.822,14.813,41.656,41.656,0,0,0,14.49,10.523,48.4,48.4,0,0,0,19.994,3.886,46.6,46.6,0,0,0,19.75-3.967,39.328,39.328,0,0,0,14.246-10.928,37.205,37.205,0,0,0,5.615-9.426,4.676,4.676,0,0,0-4.33-6.439h-14.679a4.641,4.641,0,0,0-3.891,2.1,15.467,15.467,0,0,1-5.056,4.694q-4.533,2.755-11.655,2.752-7.771,0-12.628-3.237a18.685,18.685,0,0,1-7.124-9.147q-.183-.477-.351-.968a4.688,4.688,0,0,1,4.407-6.236h54.25a4.67,4.67,0,0,0,4.67-4.67Zm-62.813-12.385a18.533,18.533,0,0,1,7.122-8.905,20.961,20.961,0,0,1,11.5-2.994,19.453,19.453,0,0,1,11.09,2.994,17.854,17.854,0,0,1,6.637,8.581c.059.151.117.3.174.458a4.673,4.673,0,0,1-4.4,6.261H2108.9a4.6,4.6,0,0,1-4.254-6.338Z" fill="#162637"/>
    </g>
    <g id="Group_45" data-name="Group 45">
      <path id="Path_110" data-name="Path 110" d="M1566.555,2938.779v-81.8a10,10,0,0,0-10-10H1438.1a10,10,0,0,0-10,10v117.493a10,10,0,0,0,10,10h78.23a4,4,0,0,0,4-4v-.071q0-18.849.016-37.7l.017-4.067c-13.972,0-27.942,0-42.091,0a4.018,4.018,0,0,1-4.018-4.013V2897a4,4,0,0,1,4-4h38.042a4.006,4.006,0,0,1,4,4.009c-.007,8.511-.03,16.855.017,25.2.031,5.509.216,11.017.331,16.525l46.014-.053Z" fill="#5c7cfa"/>
      <path id="Path_111" data-name="Path 111" d="M1566.655,2938.674v41.806a4,4,0,0,0,4,4h31.715a10,10,0,0,0,10-10v-31.7a4,4,0,0,0-4-4q-20.914,0-41.815,0Z" fill="#20c997"/>
    </g>
  </g>
</svg>
